# xmcd CD database file
#
# Track frame offsets:
#	150
#	24193
#	47645
#	94435
#	117193
#	140988
#	169033
#
# Disc length: 2582 seconds
#
# Revision: 0
# Processed by: cddbd v1.4PL0 Copyright (c) Steve Scherf et al.
# Submitted via: CDex 1.50beta10
#
DISCID=5b0a1407
DTITLE=Harold Land/ Blue Mitchell - Mapenzi
DYEAR=1977
DGENRE=Jazz
TTITLE0=Mapenzi
TTITLE1=Rapture
TTITLE2=Habiba
TTITLE3=Blue Silver
TTITLE4=Everything's Changed
TTITLE5=Inner Voice
TTITLE6=Tres Senderos
EXTD=YEAR: 1977
EXTT0=
EXTT1=
EXTT2=
EXTT3=
EXTT4=
EXTT5=
EXTT6=
PLAYORDER=
